<?xml version="1.0" encoding="utf-8"?>
<!-- Generator: Adobe Illustrator 23.0.3, SVG Export Plug-In . SVG Version: 6.00 Build 0)  -->
<svg version="1.1" id="Layer_1" xmlns="http://www.w3.org/2000/svg" xmlns:xlink="http://www.w3.org/1999/xlink" x="0px" y="0px"
	 viewBox="0 0 612 792" style="enable-background:new 0 0 612 792;" xml:space="preserve">
<g>
	<path d="M244,551c0,0,50-31.2,87-41.1C331,509.9,263.5,512.1,244,551z"/>
	<path d="M219.2,590.4c0,0-14.1,3.1-32.8-22.2c0,0-0.8,24.5,30.5,27.9c0,0,13.6,38,51.1,9.3C268,605.3,234.7,615.7,219.2,590.4z"/>
	<path d="M523.1,537.6l0-0.1l0-0.1c-6.3-29.5-17.1-49.6-17.1-49.7l-0.4-0.8l-0.9-0.1c-0.2,0-0.4,0-0.6,0
		c-7.4-31.5-34.3-40.5-34.3-40.5c-28-85.3-113.5-97.1-113.5-97.1c-19.2-6.4-26.5-21.4-26.5-21.4c-1.4-5.4-2.1-8.9-2.1-8.9l3-9.3
		c65.1,3.1,38.9-38.1,38.9-38.1c7.5-3.1,4.5-9.3,4.5-9.3c-10.5,1.6-12-3.1-12-3.1c20.2-5.4,4.5-20.2,4.5-20.2
		c28.4-10.1,8.2-24.1,8.2-24.1l-13.5-18.6c50.1-14.8,42.6-31.8,42.6-31.8c-6.7-7.8-57.6-13.2-57.6-13.2
		c-15.7-37.3-29.2-39.6-29.2-39.6c-92-22.5-123.4,40.4-123.4,40.4c-21.7,48.9,19.4,118.8,19.4,118.8c1.5,57.7-5.3,59.1-5.3,59.1
		c-69.5,4.2-83,35.5-83,35.5c-98.3,88.6,30.5,302.2,30.5,302.2c150.8,37.1,279.6,0,279.6,0l9.3-46.4c31.2,8.6,43.9,8.6,48.8,7.8
		c1.6,0.4,2.5,0.6,2.5,0.6l0.3,0.1l0.3,0c3.1-0.2,5.9-1.1,8.4-2.6c4.3-2.6,7.6-6.9,10.2-12.1c3.8-7.8,6.1-17.7,7.4-27.8
		c1.3-10.1,1.7-20.5,1.7-29.1C523.8,546.1,523.1,537.6,523.1,537.6z M419.3,521c-25.8-48.1-58.5-38.8-58.5-38.8
		c33.9-28.3,52.1,9.3,52.1,9.3l15.7,29.5H419.3z M476.1,454.7c0,0-31.8,2.1-30.3,11.4c0,0,29-1.7,30.3,2.1c0,0-23,2.5-19.6,7.6
		c0,0,17.9-4.2,30.6,6.3c0,0-34.7-3.8-46.6,13.1l-25-29.1C415.5,466.1,432,438.3,476.1,454.7z M415,386.9l-11.3,0.8
		c-11.4,1.7-8.9,4.2-8.9,4.2c24.9,4.2,44.7,16,44.7,16l-2.4,1.1c-24.2,3.7-32.2,4.4-32.2,4.4c41.8,11,53.2,26.6,53.2,26.6
		s-18.6-6.8-52.3,10.1l-16,5.9l-27-88.6C362.7,367.4,385.1,369,415,386.9z M360.6,419.5c0.5-0.1,1.1-0.1,1.7-0.1
		c5.4,0,9.7,3.2,9.7,7.2c0,4-4.3,7.2-9.7,7.2c-0.6,0-1.1,0-1.7-0.1c4.6-0.6,8-3.5,8-7.1C368.6,423,365.2,420,360.6,419.5z
		 M330.6,361.5l3.3-5.1c20.7,59.6,8.3,64.2,8.3,64.2c-10.3,18.6-58,12.6-74.2,10c-7.5-46.3-45.6-86.5-45.6-86.5l16.3,10.7
		C297.3,390.6,322.3,371.7,330.6,361.5z M248.4,434.2c0.5-0.1,1.1-0.1,1.7-0.1c5.4,0,9.7,3.2,9.7,7.2c0,4-4.3,7.2-9.7,7.2
		c-0.6,0-1.1,0-1.7-0.1c4.6-0.6,8-3.5,8-7.1C256.4,437.7,252.9,434.8,248.4,434.2z M157.9,487.1c14.7-24.8,42.7-14.3,42.7-14.3
		c-11-11.8-47.5-5.3-47.5-5.3c85-31.8,92.1,29,92.1,29c-50.3-7.6-90.4,15.5-90.4,15.5c12.4-26.2,48-22.5,48-22.5
		C189.2,478.6,157.9,487.1,157.9,487.1z M397.3,169.8c0,0-55,46.7-105.5,3.8C291.8,173.6,325.9,189,397.3,169.8z M323.4,308.9
		c0,0-83.6,21-84.2-33.2C239.3,275.7,251.6,307.7,323.4,308.9z M210.5,233.2c0,0-3.4-30.9,28.1-15.7c0,0-32.5-0.6-15.1,22.7
		c0,0,5.6,11.1,25.2,18.1C248.7,258.3,222.9,272.8,210.5,233.2z M156.2,419.7c16.9-16.9,33.9-3,33.9-3c-0.8-22.4-28.4-27-28.4-27
		l17.8-3.8c-13.1-20.3-44.9-21.1-44.9-21.1c91.1-24.1,97.9,97.5,97.9,97.5c-45.8-18.6-92.4-12.9-92.4-12.9
		c22.5-26.9,58-10.3,58-10.3C180.8,415.5,156.2,419.7,156.2,419.7z M288.4,601.2c-51.3,46.8-91.9,0-91.9,0
		c-29.7-2.5-53-35.5-53-35.5c4.2-1.7,11.4-27,11.4-27l25.4,8.9l-17.8-20.7l10.6-12.2l43.6,32.1L185.4,510c30.5-21.5,64-3,64-3h41.5
		c23.7-11.8,69.9-11.8,69.9-11.8l5.2-3.6c30.5-2.8,42.4,29.4,42.4,29.4c-11.9,15.7-112.3,52.2-112.3,52.2
		c12,2.4,65.5-11.3,65.5-11.3C349,580.5,288.4,601.2,288.4,601.2z M515.9,601.6c-1.8,6.9-4.3,13-7.6,17.3c-1.7,2.2-3.5,3.9-5.5,5.1
		c-2,1.2-4.2,1.9-6.6,2.1c-0.5-0.1-1.6-0.4-3.2-0.8c-7.8-2-27.7-7.2-47.5-13.1c-9.9-3-19.8-6.1-28.1-9.1c-4.9-1.8-9.3-3.5-12.8-5.1
		h49.1l0.3-3.4l-52.9-9l55.8-9.4l-48.5-9.5H469l-57.3-15c2.1-1.6,5.1-4,8.2-6.7c2.8-2.5,5.7-5.3,8.1-8.1c1.2-1.4,2.2-2.8,3-4.2
		c0.5-0.9,1-1.8,1.3-2.7c0.2,0,0.4,0,0.7,0c4.6,0.3,16.5,1.3,29.2,3.4c6.4,1.1,12.9,2.4,18.9,4c6,1.6,11.3,3.6,15.2,5.9l1.8-2.8
		c0,0-0.7-0.5-2-1.4c-4.5-3.2-15.9-11.3-26.8-19.9c-5.5-4.3-10.8-8.8-15.1-12.8c-2.1-2-4-3.9-5.5-5.6c-0.8-0.9-1.5-1.7-2-2.5
		c3.9-0.9,12.4-2.9,22.1-4.7c10.3-1.9,21.9-3.6,30.6-3.6c1.5,0,2.8,0.1,4.1,0.2c2,4,10.9,22.4,16.3,47.9c0,0.2,0.1,0.7,0.1,1.4
		c0.2,2.9,0.6,9.8,0.6,18.5C520.4,570.8,519.5,587.8,515.9,601.6z"/>
	<path d="M505.4,517.5l1.6,7.2l0,0.1c0.1,0.6,1.3,6.2,1.3,13.1c0,4.6-0.5,9.8-2.1,14.4c-1.6,4.6-4.3,8.6-8.6,11.2l-9.4,5.6l10.7-2.5
		c0.1,0,5.1-1.2,10.2-4.4c2.5-1.6,5.1-3.7,7.1-6.6c2-2.8,3.3-6.3,3.3-10.5c0-6-2.7-13.1-9.5-21.7L505.4,517.5z"/>
</g>
</svg>
